<svg width="156" height="62" viewBox="0 0 156 62" fill="none" xmlns="http://www.w3.org/2000/svg">
<path d="M10.3513 57.0912C10.3513 55.9798 9.9699 55.0428 9.21807 54.2691C8.46624 53.4955 7.55097 53.1142 6.48316 53.1142C5.51341 53.1142 4.67441 53.4192 3.96617 54.0403C3.26882 54.6505 2.83298 55.3914 2.66953 56.274H1.63441V53.2776H0V60.9048H1.63441V57.7995H2.66953C2.83298 58.7256 3.26882 59.5101 3.96617 60.1312C4.66351 60.7523 5.50251 61.0683 6.48316 61.0683C7.55097 61.0683 8.46624 60.6869 9.21807 59.9133C9.9699 59.1506 10.3513 58.2026 10.3513 57.0912ZM8.71685 57.0912C8.71685 57.8104 8.49893 58.4096 8.06309 58.8782C7.61635 59.3576 7.09334 59.5973 6.48316 59.5973C5.87298 59.5973 5.34997 59.3576 4.91412 58.8782C4.46738 58.4096 4.24946 57.8104 4.24946 57.0912C4.24946 56.3721 4.46738 55.7728 4.91412 55.2934C5.34997 54.8248 5.87298 54.5851 6.48316 54.5851C7.09334 54.5851 7.61635 54.8248 8.06309 55.2934C8.49893 55.7728 8.71685 56.3721 8.71685 57.0912Z" fill="#46466E"/>
<path d="M12.9602 53.2781V60.9054H14.5946V58.3993H16.1745C16.9591 58.3993 17.6128 58.1487 18.1249 57.6583C18.6371 57.168 18.8986 56.5578 18.8986 55.8387C18.8986 55.1087 18.6371 54.5094 18.1249 54.0082C17.6019 53.5178 16.9591 53.2781 16.1745 53.2781H12.9602ZM16.1201 54.7491C16.4469 54.7491 16.7193 54.858 16.9373 55.0651C17.1552 55.2721 17.2641 55.5336 17.2641 55.8387C17.2641 56.1438 17.1552 56.4053 16.9373 56.6123C16.7193 56.8193 16.4469 56.9283 16.1201 56.9283H14.5946V54.7491H16.1201Z" fill="#46466E"/>
<path d="M28.2617 60.9054V53.2781H26.8452L23.0861 58.1269V53.2781H21.4517V60.9054H22.8681L26.6273 56.0566V60.9054H28.2617Z" fill="#46466E"/>
<path d="M30.3245 59.4344V62.4853H31.9589V60.9054H36.5352V62.4853H38.1696V59.4344H37.2435V53.2781H31.9589V55.6208C31.9589 56.1329 31.9153 56.6123 31.8281 57.0591C31.741 57.5167 31.6429 57.8763 31.5448 58.1487C31.4359 58.4102 31.316 58.6499 31.1744 58.8787C31.0327 59.0966 30.9455 59.2383 30.8911 59.3036C30.8257 59.3581 30.793 59.4126 30.7603 59.4344H30.3245ZM33.5933 55.6208V54.7491H35.6091V59.4344H32.3947L32.5255 59.3036C32.6017 59.2165 32.6998 59.0748 32.8197 58.8678C32.9395 58.6608 33.0485 58.4211 33.1683 58.1487C33.2882 57.8763 33.3863 57.5058 33.4625 57.0591C33.5497 56.6123 33.5933 56.1329 33.5933 55.6208Z" fill="#46466E"/>
<path d="M47.3115 60.9054V53.2781H45.895L42.1359 58.1269V53.2781H40.5015V60.9054H41.918L45.6771 56.0566V60.9054H47.3115Z" fill="#46466E"/>
<path d="M51.8817 53.2781H50.2473V55.6208C50.2473 56.536 50.487 57.2443 50.9665 57.7455C51.4568 58.2576 52.1214 58.5082 52.9713 58.5082C53.7014 58.5082 54.3007 58.3666 54.7692 58.0724V60.9054H56.4036V53.2781H54.7692V56.4925L54.5839 56.6341C54.4641 56.7213 54.2789 56.8084 54.0282 56.9065C53.7776 56.9937 53.5161 57.0373 53.2437 57.0373C52.8079 57.0373 52.4701 56.9174 52.2304 56.6777C52.0016 56.4271 51.8817 56.0784 51.8817 55.6208V53.2781Z" fill="#46466E"/>
<path d="M65.9856 53.2781H64.3512V56.329H61.0824V53.2781H59.448V60.9054H61.0824V57.8H64.3512V60.9054H65.9856V53.2781Z" fill="#46466E"/>
<path d="M72.9549 57.691H71.1026L72.0288 55.1849L72.9549 57.691ZM73.4997 59.1075L74.1535 60.9054H75.8969L72.9004 53.2781H71.1571L68.1606 60.9054H69.904L70.5578 59.1075H73.4997Z" fill="#46466E"/>
<path d="M83.0223 53.2781H81.3879V60.9054H83.0223V58.7262L84.003 57.6365L86.2367 60.9054H88.1435L85.0926 56.438L87.9256 53.2781H86.0188L83.0223 56.6014V53.2781Z" fill="#46466E"/>
<path d="M91.4614 57.0912C91.4614 56.3939 91.7011 55.7946 92.1805 55.3152C92.649 54.8248 93.2265 54.5851 93.913 54.5851C94.5994 54.5851 95.1769 54.8248 95.6454 55.3152C96.1249 55.7946 96.3646 56.3939 96.3646 57.0912C96.3646 57.7995 96.1249 58.3879 95.6454 58.8673C95.1769 59.3576 94.5994 59.5973 93.913 59.5973C93.2265 59.5973 92.649 59.3576 92.1805 58.8673C91.7011 58.3879 91.4614 57.7995 91.4614 57.0912ZM89.7725 57.0912C89.7725 58.1808 90.1756 59.1288 90.971 59.9024C91.7664 60.676 92.7471 61.0683 93.913 61.0683C95.0788 61.0683 96.0595 60.676 96.8549 59.9024C97.6503 59.1288 98.0535 58.1808 98.0535 57.0912C98.0535 55.9907 97.6503 55.0537 96.8549 54.28C96.0595 53.5064 95.0788 53.1142 93.913 53.1142C92.7471 53.1142 91.7664 53.5064 90.971 54.28C90.1756 55.0537 89.7725 55.9907 89.7725 57.0912Z" fill="#46466E"/>
<path d="M104.748 56.6014L102.133 53.2781H100.662V60.9054H102.297V55.8387L104.748 58.9441L107.2 55.8169V60.9054H108.834V53.2781H107.385L104.748 56.6014Z" fill="#46466E"/>
<path d="M118.359 53.2781H111.876V60.9054H113.511V54.7491H116.725V60.9054H118.359V53.2781Z" fill="#46466E"/>
<path d="M125.33 57.691H123.478L124.404 55.1849L125.33 57.691ZM125.875 59.1075L126.528 60.9054H128.272L125.275 53.2781H123.532L120.536 60.9054H122.279L122.933 59.1075H125.875Z" fill="#46466E"/>
<path d="M136.983 53.2781H135.349V56.329H132.08V53.2781H130.446V60.9054H132.08V57.8H135.349V60.9054H136.983V53.2781Z" fill="#46466E"/>
<path d="M141.662 53.2781H140.028V60.9054H141.662V53.2781Z" fill="#46466E"/>
<path d="M150.373 53.2781H146.995C146.232 53.2781 145.611 53.5178 145.121 53.9973C144.63 54.4767 144.38 55.076 144.38 55.7842C144.38 56.0893 144.434 56.3726 144.521 56.645C144.62 56.9174 144.728 57.1244 144.859 57.277C144.979 57.4295 145.11 57.5712 145.273 57.7019C145.426 57.8327 145.535 57.9198 145.6 57.9525C145.655 57.9743 145.709 58.007 145.742 58.0179L144.107 60.9054H145.851L147.322 58.2358H148.738V60.9054H150.373V53.2781ZM146.014 55.7842C146.014 55.4791 146.112 55.2394 146.308 55.0433C146.505 54.8472 146.755 54.7491 147.049 54.7491H148.738V56.7649H147.049C146.755 56.7649 146.505 56.6668 146.308 56.4816C146.112 56.2963 146.014 56.0566 146.014 55.7842Z" fill="#46466E"/>
<path d="M4.98113 7.62939e-05H0V35.975H4.98113V22.6286C4.98113 20.3708 5.54273 18.5896 6.66593 17.3353C7.78912 16.0809 9.32741 15.4286 11.232 15.4286C12.8679 15.4286 14.2353 16.0307 15.3341 17.1847C16.4329 18.3638 16.9944 19.844 16.9944 21.6252V36.0001H22V21.6252C22 18.3137 21.0966 15.7046 19.2897 13.7478C17.4828 11.791 15.1143 10.8126 12.2331 10.8126C11.4029 10.8126 10.5727 10.913 9.76693 11.1388C8.93674 11.3645 8.27747 11.6154 7.74029 11.8914C7.20311 12.1673 6.69034 12.4684 6.22642 12.8196C5.76249 13.1708 5.44506 13.4217 5.29856 13.5722C5.15205 13.7227 5.02997 13.8231 4.98113 13.8983V7.62939e-05Z" fill="#F0145A"/>
<path d="M33.135 0H28V35.945H33.135V0Z" fill="#323264"/>
<path d="M63.4223 25.4178L63.679 22.8503C63.679 19.4098 62.5493 16.5342 60.2386 14.2235C57.9278 11.9127 55.0522 10.783 51.6118 10.783C48.1713 10.783 45.193 12.0154 42.7282 14.4802C40.2634 16.945 39.031 19.872 39.031 23.3638C39.031 26.9583 40.3148 30.0393 42.8309 32.6068C45.3471 35.1743 48.3767 36.4581 51.8685 36.4581C53.2036 36.4581 54.436 36.2527 55.6684 35.8932C56.9008 35.4824 57.9278 35.0716 58.6467 34.6608C59.417 34.1987 60.1872 33.6852 60.8548 33.1203C61.5223 32.5555 61.9845 32.1447 62.1899 31.8879C62.3953 31.6312 62.5493 31.4771 62.652 31.3231L59.3143 27.9853L58.544 28.961C58.0305 29.5772 57.1576 30.1934 55.9252 30.8609C54.6414 31.5285 53.3063 31.8366 51.8685 31.8366C49.8659 31.8366 48.1713 31.2204 46.7335 29.9366C45.2957 28.6529 44.4228 27.1637 44.166 25.4178H63.4223ZM51.6118 15.1478C53.5117 15.1478 55.0522 15.7126 56.336 16.791C57.5684 17.9207 58.3386 19.3071 58.6467 21.053H44.3714C44.8336 19.3071 45.6552 17.9207 46.9389 16.791C48.1713 15.7126 49.7632 15.1478 51.6118 15.1478Z" fill="#323264"/>
<path d="M87.3711 34.4554C87.3711 36.7148 86.7035 38.5634 85.3171 40.0012C83.982 41.3877 82.2874 42.1066 80.1821 42.1066C79.2578 42.1066 78.3335 41.9525 77.4605 41.6958C76.5876 41.439 75.92 41.1309 75.3552 40.7715C74.7903 40.412 74.2768 40.0526 73.7633 39.5904C73.3012 39.1283 72.9931 38.8202 72.839 38.6661C72.685 38.5121 72.5823 38.358 72.4796 38.2553L69.1418 41.5931L69.5526 42.1066C69.8094 42.466 70.2715 42.9282 70.8877 43.4417C71.5039 43.9038 72.2228 44.4173 73.0444 44.9308C73.866 45.393 74.893 45.8038 76.1768 46.1632C77.4605 46.5227 78.7956 46.7281 80.1821 46.7281C83.6739 46.7281 86.5495 45.547 88.9629 43.1849C91.325 40.7715 92.5061 37.8959 92.5061 34.404V11.2965H87.3711V13.864L86.4981 13.0938C85.9333 12.5803 85.0603 12.0668 83.8279 11.5533C82.5955 11.0398 81.2604 10.783 79.9253 10.783C76.793 10.783 74.1228 11.9641 71.812 14.3775C69.5013 16.791 68.3716 19.6666 68.3716 23.107C68.3716 26.5475 69.5013 29.4231 71.812 31.8365C74.1228 34.25 76.793 35.431 79.9253 35.431C80.7983 35.431 81.6199 35.3284 82.4928 35.1229C83.3144 34.8662 83.982 34.6094 84.5468 34.3527C85.1117 34.0959 85.6252 33.7878 86.0873 33.4284C86.5495 33.0689 86.9089 32.8122 87.0116 32.7095L87.3711 32.35V34.4554ZM73.5066 23.107C73.5066 20.9503 74.1741 19.1531 75.5606 17.6639C76.947 16.1748 78.5902 15.4045 80.4388 15.4045C82.2874 15.4045 83.9306 16.1748 85.3171 17.6639C86.6522 19.1531 87.3711 20.9503 87.3711 23.107C87.3711 25.2637 86.6522 27.061 85.3171 28.5501C83.9306 30.0393 82.2874 30.8095 80.4388 30.8095C78.5902 30.8095 76.947 30.0393 75.5606 28.5501C74.1741 27.061 73.5066 25.2637 73.5066 23.107Z" fill="#323264"/>
<path d="M119.309 35.9446V20.026C119.309 17.4072 118.333 15.1991 116.433 13.4532C114.533 11.656 112.068 10.783 109.039 10.783C107.858 10.783 106.677 10.9371 105.547 11.2452C104.417 11.6046 103.493 11.9641 102.825 12.3749C102.158 12.7857 101.49 13.2478 100.874 13.8127C100.258 14.3262 99.8985 14.6856 99.6931 14.891C99.539 15.0964 99.385 15.2505 99.2823 15.4045L102.62 18.7423L103.288 17.8693C103.698 17.3045 104.417 16.791 105.496 16.2261C106.574 15.6613 107.755 15.4045 109.039 15.4045C110.528 15.4045 111.76 15.8667 112.736 16.7396C113.712 17.6126 114.174 18.7423 114.174 20.026L105.188 21.5665C102.979 21.926 101.182 22.7989 99.9498 24.1854C98.6661 25.5719 97.9985 27.2664 97.9985 29.2691C97.9985 31.169 98.8201 32.8122 100.463 34.25C102.158 35.7392 104.212 36.4581 106.728 36.4581C107.601 36.4581 108.423 36.3554 109.244 36.0986C110.117 35.8932 110.785 35.6365 111.35 35.3797C111.914 35.123 112.428 34.8149 112.89 34.4554C113.352 34.096 113.66 33.8392 113.866 33.7365C114.02 33.5825 114.122 33.4284 114.174 33.3771V35.9446H119.309ZM107.498 31.8366C106.163 31.8366 105.085 31.5285 104.315 30.9123C103.493 30.2961 103.134 29.5772 103.134 28.7556C103.134 27.8826 103.39 27.1124 103.955 26.5475C104.52 25.9827 105.29 25.5719 106.215 25.4178L114.174 24.134V24.6475C114.174 26.9583 113.609 28.7042 112.428 29.988C111.247 31.2204 109.604 31.8366 107.498 31.8366Z" fill="#323264"/>
<path d="M130.64 -3.8147e-06H125.505V35.945H130.64V-3.8147e-06Z" fill="#323264"/>
<path d="M153.989 14.1208L153.681 13.7613C153.475 13.5559 153.167 13.2992 152.705 12.9397C152.243 12.5803 151.73 12.2722 151.165 11.9127C150.6 11.6046 149.83 11.3479 148.905 11.0911C147.981 10.8857 147.005 10.783 146.03 10.783C143.514 10.783 141.46 11.5019 139.816 12.9397C138.122 14.4289 137.3 16.0721 137.3 17.972C137.3 19.3585 137.608 20.4882 138.224 21.5152C138.841 22.4908 139.611 23.2097 140.587 23.6205C141.511 24.0827 142.538 24.5448 143.616 24.9043C144.695 25.2638 145.67 25.5719 146.646 25.8286C147.57 26.1367 148.34 26.4962 148.957 26.9583C149.573 27.4205 149.881 28.0367 149.881 28.7556C149.881 29.6799 149.522 30.4501 148.854 31.015C148.186 31.5285 147.159 31.8366 145.773 31.8366C144.643 31.8366 143.514 31.5285 142.435 31.015C141.357 30.4501 140.689 29.988 140.33 29.6285C140.022 29.2691 139.765 28.961 139.611 28.7556L136.273 32.0933L136.633 32.5555C136.889 32.8636 137.249 33.223 137.762 33.6338C138.327 34.096 138.943 34.5068 139.611 34.9176C140.33 35.3284 141.254 35.6878 142.333 35.9959C143.411 36.304 144.592 36.4581 145.773 36.4581C148.495 36.4581 150.754 35.6878 152.448 34.1987C154.143 32.7095 155.016 30.8609 155.016 28.7556C155.016 27.3691 154.708 26.1881 154.092 25.2638C153.475 24.2881 152.705 23.5692 151.73 23.107C150.805 22.5935 149.778 22.1827 148.7 21.8233C147.622 21.4638 146.646 21.1044 145.67 20.899C144.746 20.6422 143.976 20.2314 143.36 19.7693C142.743 19.3071 142.435 18.6909 142.435 17.972C142.435 17.3045 142.743 16.6883 143.411 16.1748C144.027 15.6613 144.9 15.4045 146.03 15.4045C146.851 15.4045 147.673 15.6099 148.443 15.9694C149.265 16.3288 149.83 16.6369 150.086 16.8937C150.343 17.1504 150.549 17.3558 150.651 17.4585L153.989 14.1208Z" fill="#323264"/>
</svg>
